<?xml version="1.0"?>
<svg xmlns="http://www.w3.org/2000/svg" id="Capa_1" enable-background="new 0 0 509.415 509.415" height="512px" viewBox="0 0 509.415 509.415" width="512px" class=""><g><g><path d="m353.747 246.641c4.143 0 7.5-3.357 7.5-7.5s-3.357-7.5-7.5-7.5h-21.605c-4.143 0-7.5 3.357-7.5 7.5v51.275c0 4.143 3.357 7.5 7.5 7.5h21.605c4.143 0 7.5-3.357 7.5-7.5s-3.357-7.5-7.5-7.5h-14.105v-10.638h12.513c4.143 0 7.5-3.357 7.5-7.5s-3.357-7.5-7.5-7.5h-12.513v-10.638h14.105zm-65.043-15.473c-4.143 0-7.5 3.357-7.5 7.5v51.705c0 3.654 2.634 6.777 6.236 7.393.532.091.901.154 6.732.154 2.783 0 6.812-.015 12.693-.047 4.142-.023 7.48-3.399 7.458-7.542-.023-4.128-3.376-7.458-7.499-7.458h-.043c-3.611.021-7.421.035-10.578.041v-44.246c.001-4.143-3.357-7.5-7.499-7.5zm-140.239 5.428c-.089.325-.293 1.121-.296 2.072v51.748c0 4.143 3.357 7.5 7.5 7.5s7.5-3.357 7.5-7.5v-15.018c2.599-.013 5.279-.023 6.908-.023 12.346 0 22.39-9.916 22.39-22.104s-10.044-22.104-22.39-22.104h-14.408c-1.657-.294-6.382 1.719-7.204 5.429zm21.612 9.572c4.006 0 7.39 3.253 7.39 7.104s-3.384 7.104-7.39 7.104c-1.618 0-4.265.011-6.849.023-.013-2.686-.023-5.458-.023-7.127 0-1.424-.007-4.285-.014-7.104zm168.735-110.084h-28.578c-4.143 0-7.5 3.357-7.5 7.5s3.357 7.5 7.5 7.5h6.731v44.248c0 4.143 3.357 7.5 7.5 7.5s7.5-3.357 7.5-7.5v-44.248h6.847c4.143 0 7.5-3.357 7.5-7.5s-3.357-7.5-7.5-7.5zm-51.078 20.948c0-11.551-9.739-20.948-21.71-20.948h-13.751c-.003 0-.006 0-.008 0-.003 0-.005 0-.008 0-4.143 0-7.5 3.357-7.5 7.5v51.748c0 4.143 3.357 7.5 7.5 7.5s7.5-3.357 7.5-7.5v-11.915l14.848 16.87c1.482 1.685 3.553 2.545 5.633 2.545 1.76 0 3.527-.616 4.952-1.87 3.109-2.736 3.411-7.476.675-10.585l-12.119-13.77c8.168-3.01 13.988-10.647 13.988-19.575zm-21.71 5.949c-1.474 0-3.841.009-6.197.02-.011-2.28-.02-4.556-.02-5.969 0-1.211-.005-3.553-.012-5.948h6.229c3.637 0 6.71 2.724 6.71 5.948s-3.073 5.949-6.71 5.949zm-62.896 101.561c0 18.402 14.972 33.374 33.374 33.374s33.374-14.972 33.374-33.374-14.972-33.374-33.374-33.374-33.374 14.972-33.374 33.374zm51.748 0c0 10.132-8.242 18.374-18.374 18.374s-18.374-8.242-18.374-18.374 8.242-18.374 18.374-18.374 18.374 8.242 18.374 18.374zm201.332-128.458c0-20.678-16.822-37.5-37.5-37.5h-136v-25.313c8.586-7.696 14-18.861 14-31.271 0-23.159-18.841-42-42-42s-42 18.841-42 42c0 12.41 5.414 23.576 14 31.271v25.313h-68.021c-4.143 0-7.5 3.357-7.5 7.5s3.357 7.5 7.5 7.5h260.021c12.406 0 22.5 10.094 22.5 22.5v161.832c0 4.212-1.172 8.28-3.346 11.802-.845-.107-1.699-.168-2.561-.168h-74.777c-6.154 0-11.917 2.734-15.809 7.503-.862 1.056-1.601 2.185-2.226 3.363h-251.781c-12.406 0-22.5-10.094-22.5-22.5v-161.832c0-12.406 10.094-22.5 22.5-22.5h37.979c4.143 0 7.5-3.357 7.5-7.5s-3.357-7.5-7.5-7.5h-37.979c-20.678 0-37.5 16.822-37.5 37.5v161.832c0 20.678 16.822 37.5 37.5 37.5h136v99.594c-.924-.353-1.836-.711-2.743-1.068-8.074-3.174-16.42-6.46-28.399-3.573-11.823 2.848-17.88 9.529-22.746 14.898-4.626 5.104-8.279 9.136-16.686 10.719-6.44 1.211-10.938.119-15.698-1.039-5.755-1.399-12.278-2.986-20.181.571-16.79 7.557-15.994 27.347-15.467 40.441.087 2.158.169 4.196.169 5.956 0 4.143 3.357 7.5 7.5 7.5s7.5-3.357 7.5-7.5c0-2.062-.088-4.246-.181-6.559-.52-12.897-.36-23.013 6.635-26.161 3.079-1.385 5.438-.899 10.479.326 5.524 1.344 12.402 3.018 22.02 1.204 13.359-2.516 19.827-9.651 25.023-15.385 4.367-4.819 7.817-8.625 15.146-10.391 7.377-1.775 12.158.105 19.396 2.951 8.177 3.216 18.364 7.221 34.799 6.625 11.909-.429 20.049-3.015 26.588-5.093 7.093-2.255 11.375-3.614 17.799-1.792 5.01 1.422 6.729 3.369 9.579 6.595 3.321 3.76 7.453 8.438 16.622 11.862 11.996 4.479 21.502 2.782 29.891 1.283 6.988-1.247 12.509-2.235 18.879.353 13.317 5.407 14.278 16.521 14.278 34.181 0 4.143 3.357 7.5 7.5 7.5s7.5-3.357 7.5-7.5c0-16.24 0-38.481-23.636-48.079-10.383-4.216-19.294-2.624-27.159-1.22-7.433 1.326-13.853 2.475-22.005-.57-5.657-2.112-7.851-4.596-10.628-7.739-3.334-3.775-7.483-8.473-16.728-11.095-10.761-3.055-18.375-.635-26.435 1.926-5.965 1.896-12.725 4.044-22.585 4.398-4.154.146-7.777-.053-11.026-.486v-103.633h26v77.62c0 4.143 3.357 7.5 7.5 7.5s7.5-3.357 7.5-7.5v-77.62h58.104l15.077 73.729c1.241 7.013 7.278 12.085 14.417 12.085 7.104 0 13.117-5.023 14.398-11.983l8.931-38.953c.034-.148.063-.299.089-.449.492-2.97 3.033-5.125 6.043-5.125 2.975 0 5.491 2.104 6.025 5.02l8.953 68.982c.011.088.024.175.038.262 1.177 7.097 7.252 12.247 14.445 12.247s13.269-5.15 14.445-12.247c.021-.132.04-.264.055-.396l11.855-106.369c.614-5.503-1.05-11.022-4.568-15.271 3.376-5.722 5.192-12.265 5.192-19.03v-161.834zm-188.5-37.5h-26v-16.653c4.096 1.337 8.463 2.069 13 2.069s8.904-.732 13-2.069zm-13-29.584c-14.888 0-27-12.112-27-27s12.112-27 27-27 27 12.112 27 27-12.113 27-27 27zm185.967 261.556-11.478 102.982-8.552-65.886c-.011-.088-.024-.175-.038-.262-1.697-10.239-10.463-17.672-20.842-17.672-10.295 0-19.002 7.312-20.799 17.423l-8.646 37.714-15.096-73.814c-.447-2.188.503-3.761 1.109-4.503.606-.743 1.956-1.988 4.188-1.988h74.777c2.104 0 3.428 1.129 4.03 1.802.605.673 1.581 2.114 1.347 4.204zm-71.863-194.472c-4.143 0-7.5 3.357-7.5 7.5v51.748c0 4.143 3.357 7.5 7.5 7.5s7.5-3.357 7.5-7.5v-19.262h20.811v19.262c0 4.143 3.357 7.5 7.5 7.5s7.5-3.357 7.5-7.5v-51.748c0-4.143-3.357-7.5-7.5-7.5s-7.5 3.357-7.5 7.5v17.486h-20.811v-17.486c0-4.143-3.357-7.5-7.5-7.5zm-235.741 7.572.273 28.17-22.381-32.407c-1.865-2.701-5.266-3.873-8.403-2.898-3.133.977-5.268 3.878-5.268 7.16v51.651c0 4.143 3.357 7.5 7.5 7.5s7.5-3.357 7.5-7.5v-27.593l21.255 30.776c2.163 3.125 5.787 4.447 9.233 3.374 3.508-1.096 5.774-4.354 5.774-8.374l-.484-50.004c-.04-4.118-3.39-7.428-7.498-7.428h-.074c-4.142.041-7.467 3.432-7.427 7.573zm63.311-7.572c-18.402 0-33.374 14.972-33.374 33.374s14.972 33.374 33.374 33.374 33.374-14.972 33.374-33.374-14.971-33.374-33.374-33.374zm0 51.748c-10.132 0-18.374-8.242-18.374-18.374s8.242-18.374 18.374-18.374 18.374 8.242 18.374 18.374-8.242 18.374-18.374 18.374z" data-original="#000000" class="active-path" data-old_color="#000000" fill="#FFFFFF"/></g></g> </svg>
